<svg width="80" height="20" viewBox="0 0 80 20" fill="none" xmlns="http://www.w3.org/2000/svg">
<path d="M1.28 17V3H6.06C7.72667 3 9.08667 3.29333 10.14 3.88C11.2067 4.46667 11.9867 5.28667 12.48 6.34C12.9867 7.39333 13.24 8.61333 13.24 10C13.24 11.4933 12.96 12.7667 12.4 13.82C11.8533 14.86 11.0467 15.6533 9.98 16.2C8.91333 16.7333 7.60667 17 6.06 17H1.28ZM3.84 14.8H5.94C7.12667 14.8 8.06 14.6067 8.74 14.22C9.42 13.8333 9.9 13.28 10.18 12.56C10.4733 11.84 10.62 10.9867 10.62 10C10.62 8.33333 10.2333 7.11333 9.46 6.34C8.7 5.56667 7.52667 5.18 5.94 5.18H3.84V14.8ZM15.3425 17V3H24.3225V5.18H17.9025V8.52H23.4025V10.7H17.9025V14.82H24.3225V17H15.3425ZM30.633 17L25.513 3H28.253L32.213 14.38L36.193 3H38.893L33.773 17H30.633ZM43.6611 17V5.18H39.5811V3H50.3211V5.18H46.2211V17H43.6611ZM52.4947 17.24C51.908 17.24 51.3614 17.12 50.8547 16.88C50.348 16.64 49.9347 16.3 49.6147 15.86C49.308 15.4067 49.1547 14.8733 49.1547 14.26C49.1547 13.5267 49.3347 12.9267 49.6947 12.46C50.0547 11.9933 50.548 11.6467 51.1747 11.42C51.8147 11.1933 52.528 11.08 53.3147 11.08H55.6747C55.6747 10.6267 55.6014 10.2467 55.4547 9.94C55.3214 9.63333 55.1147 9.4 54.8347 9.24C54.568 9.06667 54.2347 8.98 53.8347 8.98C53.368 8.98 52.948 9.08667 52.5747 9.3C52.2147 9.5 51.9947 9.84 51.9147 10.32H49.3547C49.4214 9.6 49.668 8.98 50.0947 8.46C50.5214 7.94 51.068 7.54 51.7347 7.26C52.4014 6.98 53.1147 6.84 53.8747 6.84C54.808 6.84 55.5947 7.01333 56.2347 7.36C56.888 7.70667 57.388 8.2 57.7347 8.84C58.0814 9.46667 58.2547 10.2133 58.2547 11.08V14.1C58.2814 14.3933 58.388 14.5933 58.5747 14.7C58.7614 14.8067 59.008 14.86 59.3147 14.86V17C58.688 17 58.1614 16.94 57.7347 16.82C57.3214 16.7 56.9814 16.5267 56.7147 16.3C56.448 16.06 56.2214 15.76 56.0347 15.4C55.728 15.92 55.248 16.36 54.5947 16.72C53.9547 17.0667 53.2547 17.24 52.4947 17.24ZM53.2347 15.18C53.6747 15.18 54.0747 15.08 54.4347 14.88C54.808 14.68 55.108 14.4 55.3347 14.04C55.5614 13.68 55.6747 13.2667 55.6747 12.8V12.72H53.4747C53.1814 12.72 52.9014 12.7667 52.6347 12.86C52.368 12.94 52.1547 13.0733 51.9947 13.26C51.8347 13.4333 51.7547 13.6733 51.7547 13.98C51.7547 14.3933 51.8947 14.7 52.1747 14.9C52.468 15.0867 52.8214 15.18 53.2347 15.18ZM64.4522 17.24C63.7055 17.24 63.0055 17.1067 62.3522 16.84C61.6989 16.56 61.1589 16.1667 60.7322 15.66C60.3189 15.1533 60.0922 14.56 60.0522 13.88H62.6122C62.6789 14.3067 62.8855 14.64 63.2322 14.88C63.5922 15.12 63.9922 15.24 64.4322 15.24C64.8055 15.24 65.1522 15.16 65.4722 15C65.8055 14.8267 65.9722 14.56 65.9722 14.2C65.9722 13.92 65.8522 13.7 65.6122 13.54C65.3722 13.38 65.0922 13.2533 64.7722 13.16C64.4522 13.0667 64.1589 12.9867 63.8922 12.92C63.2255 12.76 62.6189 12.5733 62.0722 12.36C61.5255 12.1333 61.0922 11.8267 60.7722 11.44C60.4522 11.04 60.2922 10.5133 60.2922 9.86C60.2922 9.22 60.4722 8.67333 60.8322 8.22C61.2055 7.76667 61.6922 7.42667 62.2922 7.2C62.9055 6.96 63.5655 6.84 64.2722 6.84C65.3789 6.84 66.3122 7.12 67.0722 7.68C67.8322 8.24 68.2455 9.06667 68.3122 10.16H65.8922C65.8522 9.73333 65.6722 9.41333 65.3522 9.2C65.0455 8.97333 64.6589 8.86 64.1922 8.86C63.8189 8.86 63.4855 8.92667 63.1922 9.06C62.8989 9.19333 62.7522 9.44667 62.7522 9.82C62.7522 10.0867 62.8722 10.3067 63.1122 10.48C63.3522 10.64 63.6389 10.7733 63.9722 10.88C64.3055 10.9733 64.5989 11.0533 64.8522 11.12C65.5455 11.2933 66.1522 11.4933 66.6722 11.72C67.2055 11.9467 67.6255 12.2533 67.9322 12.64C68.2389 13.0267 68.3989 13.5467 68.4122 14.2C68.4122 14.8533 68.2255 15.4067 67.8522 15.86C67.4922 16.3133 67.0122 16.66 66.4122 16.9C65.8122 17.1267 65.1589 17.24 64.4522 17.24ZM69.8648 17V3H72.4248V11.28L75.7248 7.08H79.0248L74.6648 12.06L79.0848 17H75.7848L72.4248 12.78V17H69.8648Z" fill="black"/>
</svg>
